HIERARCHY
ROOT hip
{
	OFFSET 0.000000 0.000000 0.000000 
	CHANNELS 6 Xposition Yposition Zposition Xrotation Zrotation Yrotation
	JOINT abdomen
	{
		OFFSET 0.000000 3.402643 0.000000 
		CHANNELS 3 Xrotation Zrotation Yrotation
		JOINT chest
		{
			OFFSET 0.000000 8.438565 -0.680529 
			CHANNELS 3 Xrotation Zrotation Yrotation
			JOINT neck
			{
				OFFSET 0.000000 10.207942 -0.272212 
				CHANNELS 3 Xrotation Zrotation Yrotation
				JOINT head
				{
					OFFSET 0.000000 3.130431 0.000000 
					CHANNELS 3 Xrotation Zrotation Yrotation
					End Site
					{
						OFFSET 0.000000 3.130435 0.000000 
					}
				}
			}
			JOINT lCollar
			{
				OFFSET 3.470700 6.669187 -0.816635 
				CHANNELS 3 Yrotation Zrotation Xrotation
				JOINT lShldr
				{
					OFFSET 3.198488 0.000000 0.000000 
					CHANNELS 3 Zrotation Yrotation Xrotation
					JOINT lForeArm
					{
						OFFSET 10.139888 0.000000 0.000000 
						CHANNELS 3 Yrotation Zrotation Xrotation
						JOINT lHand
						{
							OFFSET 8.370511 0.000000 0.000000 
							CHANNELS 3 Zrotation Yrotation Xrotation
							End Site
							{
								OFFSET 4.083176 0.000000 0.000000 
							}
						}
					}
				}
			}
			JOINT rCollar
			{
				OFFSET -3.470700 6.669187 -0.816635 
				CHANNELS 3 Yrotation Zrotation Xrotation
				JOINT rShldr
				{
					OFFSET -3.198488 0.000000 0.000000 
					CHANNELS 3 Zrotation Yrotation Xrotation
					JOINT rForeArm
					{
						OFFSET -10.139888 0.000000 0.000000 
						CHANNELS 3 Yrotation Zrotation Xrotation
						JOINT rHand
						{
							OFFSET -8.370511 0.000000 0.000000 
							CHANNELS 3 Zrotation Yrotation Xrotation
							End Site
							{
								OFFSET -4.083176 0.000000 0.000000 
							}
						}
					}
				}
			}
		}
	}
	JOINT lThigh
	{
		OFFSET 5.308129 -1.633274 1.361059 
		CHANNELS 3 Xrotation Zrotation Yrotation
		JOINT lShin
		{
			OFFSET -2.041588 -20.007561 0.000000 
			CHANNELS 3 Xrotation Zrotation Yrotation
			JOINT lFoot
			{
				OFFSET 0.000000 -19.190928 -1.224953 
				CHANNELS 3 Xrotation Yrotation Zrotation
				End Site
				{
					OFFSET 0.000000 -2.449906 4.627600 
				}
			}
		}
	}
	JOINT rThigh
	{
		OFFSET -5.308129 -1.633274 1.361059 
		CHANNELS 3 Xrotation Zrotation Yrotation
		JOINT rShin
		{
			OFFSET 2.041588 -20.007561 0.000000 
			CHANNELS 3 Xrotation Zrotation Yrotation
			JOINT rFoot
			{
				OFFSET 0.000000 -19.190928 -1.224953 
				CHANNELS 3 Xrotation Yrotation Zrotation
				End Site
				{
					OFFSET 0.000000 -2.449906 4.627600 
				}
			}
		}
	}
}
MOTION
Frames: 13
Frame Time: 0.033333
0.086717 23.231108 0.086717 7.729309 -3.381461 -25.614664 14.323412 13.932178 -17.609879 10.986328 0.000000 -0.019531 -8.544922 -0.001505 -0.009645 16.524626 12.372809 46.607227 2.000000 -2.000000 0.000000 -40.181210 -54.846989 -21.552023 -60.292080 -0.542985 8.675316 -49.828224 -35.391361 -142.648224 -2.000000 2.000000 0.000000 125.223572 45.540749 76.261261 77.285210 0.503955 8.850269 13.347843 -59.535427 -39.001194 -148.053665 29.540575 -24.860950 121.645668 4.574658 -3.427397 7.754186 8.127489 5.714917 -30.873779 -28.805780 12.527601 128.643478 -5.015353 3.066136 -33.429329 23.733309 40.050240 
0.086717 23.228609 0.086717 7.729309 -3.381461 -25.614664 14.323412 13.932178 -17.609879 10.986328 0.000000 -0.019531 -8.544922 -0.001505 -0.009645 16.524626 12.372809 46.607227 2.000000 -2.000000 0.000000 -40.311741 -54.788570 -21.419113 -60.287216 -0.536853 8.675211 -49.833843 -35.426689 -142.536011 -2.000000 2.000000 0.000000 125.083878 45.502335 76.176910 77.285210 0.503955 8.850269 13.249948 -59.451256 -38.924446 -148.078354 29.539831 -24.866753 121.645668 4.574659 -3.427394 7.765326 8.127869 5.724403 -30.873779 -28.805780 12.527601 128.643478 -5.015355 3.066137 -33.437115 23.743917 40.047127 
0.086717 23.226099 0.086717 7.729309 -3.381461 -25.614664 14.323412 13.932178 -17.609879 10.986328 0.000000 -0.019531 -8.544922 -0.001505 -0.009645 16.524626 12.372809 46.607227 2.000000 -2.000000 0.000000 -40.283195 -54.795849 -21.452583 -60.291904 -0.537994 8.683705 -49.825588 -35.410686 -142.547424 -2.000000 2.000000 0.000000 125.106865 45.505032 76.200851 77.285210 0.503955 8.850269 13.249948 -59.451256 -38.924446 -148.085022 29.531139 -24.870468 121.645668 4.574659 -3.427397 7.765082 8.124839 5.733656 -30.873779 -28.805780 12.527600 128.643478 -5.015355 3.066136 -33.437115 23.743919 40.047127 
0.086717 23.233606 0.086717 7.729309 -3.381461 -25.614664 14.323412 13.932178 -17.609879 10.986328 0.000000 -0.019531 -8.544922 -0.001505 -0.009645 16.524626 12.372809 46.607227 2.000000 -2.000000 0.000000 -40.163731 -54.848408 -21.573006 -60.299328 -0.537293 8.671990 -49.837494 -35.384445 -142.651840 -2.000000 2.000000 0.000000 125.239944 45.542091 76.276718 77.285210 0.503955 8.850269 13.379511 -59.556297 -39.031322 -148.053665 29.540575 -24.860950 121.645668 4.574659 -3.427398 7.754185 8.127490 5.714917 -30.873779 -28.805780 12.527601 128.643478 -5.015352 3.066136 -33.429325 23.733303 40.050240 
0.086717 23.241123 0.086717 7.729309 -3.381461 -25.614664 14.323412 13.932178 -17.609879 10.986328 0.000000 -0.019531 -8.544922 -0.001505 -0.009645 16.524626 12.372809 46.607227 2.000000 -2.000000 0.000000 -40.042553 -54.906666 -21.705982 -60.299328 -0.537293 8.671990 -49.852055 -35.357708 -142.731339 -2.000000 2.000000 0.000000 125.370239 45.598446 76.343689 77.304939 0.504081 8.854757 13.475924 -59.649757 -39.096947 -148.029800 29.559410 -24.877113 121.626366 4.564957 -3.425407 7.729226 8.122289 5.716158 -30.873779 -28.805780 12.527601 128.633698 -5.015343 3.066463 -33.412712 23.723921 40.034920 
0.086717 23.251135 0.086717 7.729309 -3.381461 -25.614664 14.323412 13.932178 -17.609879 10.986328 0.000000 -0.019531 -8.544922 -0.001505 -0.009645 16.524626 12.372809 46.607227 2.000000 -2.000000 0.000000 -39.948235 -54.942955 -21.809992 -60.332912 -0.540445 8.682348 -49.854305 -35.325172 -142.796814 -2.000000 2.000000 0.000000 125.478676 45.624447 76.412109 77.304939 0.504081 8.854757 13.569461 -59.721649 -39.167801 -148.010818 29.569313 -24.873060 121.606529 4.566378 -3.432590 7.730245 8.136415 5.710372 -30.911856 -28.795429 12.532874 128.614059 -4.997132 3.073642 -33.367992 23.728951 40.020332 
0.086717 23.266161 0.086717 7.729309 -3.381461 -25.614664 14.323412 13.932178 -17.609879 10.986328 0.000000 -0.019531 -8.544922 -0.001505 -0.009645 16.524626 12.372809 46.607227 2.000000 -2.000000 0.000000 -39.839710 -54.976173 -21.935520 -60.340336 -0.539734 8.670722 -49.864292 -35.299744 -142.854858 -2.000000 2.000000 0.000000 125.584328 45.669758 76.464638 77.324852 0.506518 8.849764 13.663112 -59.793518 -39.238693 -147.958511 29.589834 -24.845236 121.597092 4.566400 -3.423274 7.673059 8.116362 5.719606 -30.904991 -28.797058 12.491180 128.604233 -4.997973 3.073781 -33.347885 23.734362 39.993111 
0.086717 23.281187 0.086717 7.729309 -3.381461 -25.614664 14.323412 13.932178 -17.609879 10.986328 0.000000 -0.019531 -8.544922 -0.001505 -0.009645 16.524626 12.372809 46.607227 2.000000 -2.000000 0.000000 -39.765404 -55.019711 -22.009609 -60.340336 -0.539734 8.670722 -49.864677 -35.285633 -142.943008 -2.000000 2.000000 0.000000 125.676437 45.694386 76.517624 77.324852 0.506518 8.849764 13.745724 -59.867153 -39.300526 -147.900101 29.619125 -24.821667 121.567780 4.574674 -3.418757 7.673473 8.119244 5.710362 -30.930321 -28.785053 12.494877 128.594437 -4.997968 3.074095 -33.297180 23.737280 39.965767 
0.086717 23.306242 0.086717 7.729309 -3.381461 -25.614664 14.323412 13.932178 -17.609879 10.986328 0.000000 -0.019531 -8.544922 -0.001505 -0.009645 16.524626 12.372809 46.607227 2.000000 -2.000000 0.000000 -39.690887 -55.063187 -22.075726 -60.340336 -0.539734 8.670722 -49.874603 -35.260231 -143.001068 -2.000000 2.000000 0.000000 125.775215 45.720318 76.579117 77.324852 0.506518 8.849764 13.823674 -59.928566 -39.356388 -147.824402 29.637482 -24.789577 121.528587 4.564937 -3.426357 7.633356 8.113240 5.711910 -30.943031 -28.786694 12.496458 128.574875 -4.997954 3.074723 -33.239643 23.724142 39.943810 
0.086717 23.321259 0.086717 7.729309 -3.381461 -25.614664 14.323412 13.932178 -17.609879 10.986328 0.000000 -0.019531 -8.544922 -0.001505 -0.009645 16.524626 12.372809 46.607227 2.000000 -2.000000 0.000000 -39.624714 -55.092045 -22.146324 -60.369057 -0.536735 8.681070 -49.880047 -35.236095 -143.043274 -2.000000 2.000000 0.000000 125.856194 45.754589 76.624191 77.324852 0.506518 8.849764 13.885757 -59.979553 -39.397156 -147.755249 29.666634 -24.778532 121.489464 4.564929 -3.426737 7.592948 8.113782 5.695080 -30.970718 -28.766254 12.458069 128.535370 -4.997905 3.085334 -33.176590 23.727608 39.911591 
0.086717 23.346313 0.086717 7.729309 -3.381461 -25.614664 14.323412 13.932178 -17.609879 10.986328 0.000000 -0.019531 -8.544922 -0.001505 -0.009645 16.524626 12.372809 46.607227 2.000000 -2.000000 0.000000 -39.552197 -55.116482 -22.217415 -60.369057 -0.536735 8.681070 -49.881165 -35.226532 -143.093735 -2.000000 2.000000 0.000000 125.914131 45.786217 76.645294 77.324852 0.506518 8.849764 13.931930 -60.020111 -39.431286 -147.670166 29.715929 -24.742723 121.440125 4.554992 -3.444138 7.552526 8.107841 5.696627 -30.978201 -28.755219 12.438089 128.505646 -4.997857 3.096489 -33.103958 23.712624 39.859116 
0.086717 23.366337 0.086717 7.729309 -3.381461 -25.614664 14.323412 13.932178 -17.609879 10.986328 0.000000 -0.019531 -8.544922 -0.001505 -0.009645 16.524626 12.372809 46.607227 2.000000 -2.000000 0.000000 -39.501839 -55.149654 -22.287571 -60.373920 -0.542858 8.681071 -49.881760 -35.208080 -143.148193 -2.000000 2.000000 0.000000 125.982948 45.790150 76.684769 77.324852 0.506518 8.849764 13.987597 -60.068214 -39.463322 -147.601563 29.745163 -24.739824 121.420898 4.556026 -3.434247 7.526222 8.106564 5.688841 -31.024576 -28.759325 12.395488 128.486145 -4.988073 3.097703 -33.022881 23.701660 39.820339 
0.086717 23.391378 0.086717 7.729309 -3.381461 -25.614664 14.323412 13.932178 -17.609879 10.986328 0.000000 -0.019531 -8.544922 -0.001505 -0.009645 16.524626 12.372809 46.607227 2.000000 -2.000000 0.000000 -39.450256 -55.168266 -22.346170 -60.381161 -0.537157 8.677753 -49.888165 -35.201771 -143.176819 -2.000000 2.000000 0.000000 126.037796 45.823078 76.721382 77.329720 0.509985 8.848770 14.033827 -60.108765 -39.497478 -147.498276 29.784979 -24.691416 121.362572 4.546908 -3.430462 7.473876 8.085830 5.686549 -31.048086 -28.746305 12.379579 128.456772 -4.988062 3.098616 -32.957298 23.699377 39.768719 
